<svg xmlns="http://www.w3.org/2000/svg" width="94" height="128"><path d="M46.977 126.643c-.283-.687-6.163-6.437-10.374-11.662C11.656 81.86-16.157 51.084 16.32 13.684 30.7-.21 48.433-1.003 66.663 5.473c51.33 29.702 14.166 78.155-10.236 110.008l-9.45 11.163zm15.44-50.77c34.237-24.486 7.768-71.634-29.848-55.96C21.584 25.77 16.134 35.96 15.943 47.98 15.42 59.675 21.63 69.453 31.47 75.44c7.056 3.842 10.157 4.535 18.146 4.06 5.178-.31 8.16-1.155 12.8-3.628z" fill="#c64242" fill-opacity=".988"/><path d="M41.682 89.89a51.223 41.754 0 1 1 1.277.21" transform="matrix(.878 0 0 1.052 .555 -6.995)" fill="#c64242" fill-opacity=".988"/><path d="M43.63 69.13a26.01 20.99 0 1 1 .65.103" transform="translate(.645)" opacity=".34" fill="none"/><path d="M31.892 114.28a16.656 11.75 0 1 1 .415.06" transform="translate(.645)" fill="none"/><path d="M45.52 84.824a34.453 33.54 0 1 1 .86.167" transform="matrix(.97 0 0 1.027 -4.059 -5.75)" fill="#b72c2c"/><path d="M57.08 104.608a34.203 36.623 0 1 1 .852.182" transform="matrix(.646 0 0 .617 5.126 4.901)" fill="#fff"/></svg>