<svg xmlns="http://www.w3.org/2000/svg" xmlns:xlink="http://www.w3.org/1999/xlink" version="1" width="244" height="342"><defs><linearGradient id="d"><stop offset="0" stop-color="#2191b6"/><stop offset=".725" stop-color="#4cbade"/><stop offset=".856" stop-color="#c8eaf5"/><stop offset="1" stop-color="#7ccde9"/></linearGradient><linearGradient id="c"><stop offset="0"/><stop offset="1" stop-opacity="0"/></linearGradient><linearGradient id="b"><stop offset="0" stop-color="#fff"/><stop offset=".868" stop-color="#35c4e9"/><stop offset="1" stop-color="#0a4d94"/></linearGradient><linearGradient id="a"><stop offset="0" stop-color="#fff"/><stop offset="1" stop-color="#848484"/></linearGradient><radialGradient cx="280.563" cy="429.615" r="50.012" fx="280.563" fy="429.615" xlink:href="#a" gradientUnits="userSpaceOnUse" gradientTransform="matrix(.329 .121 -2.258 6.155 1172.647 -2214.239)"/><radialGradient cx="65.121" cy="105.035" r="64.499" fx="65.121" fy="105.035" xlink:href="#b" gradientUnits="userSpaceOnUse" gradientTransform="matrix(.867 .013 -.005 .635 9.1 44.028)"/><radialGradient cx="413.03" cy="164.845" r="62.673" fx="413.03" fy="164.845" xlink:href="#b" gradientUnits="userSpaceOnUse" gradientTransform="matrix(1.053 .243 -.133 .575 -.071 -20.363)"/><filter id="g"><feGaussianBlur stdDeviation="2.108"/></filter><filter><feGaussianBlur stdDeviation="1.198"/></filter><linearGradient x1="64.192" y1="131.891" x2="63.436" y2="103.341" id="j" xlink:href="#c" gradientUnits="userSpaceOnUse"/><radialGradient cx="64.65" cy="125.641" r="65.386" fx="64.65" fy="125.641" id="i" xlink:href="#d" gradientUnits="userSpaceOnUse" gradientTransform="matrix(1.007 -.046 .017 .608 -2.441 49.337)"/><filter id="k"><feGaussianBlur stdDeviation=".609"/></filter><radialGradient xlink:href="#b" id="h" gradientUnits="userSpaceOnUse" gradientTransform="matrix(1.053 .243 -.133 .575 -288.439 -164.035)" cx="413.03" cy="164.845" fx="413.03" fy="164.845" r="62.673"/><radialGradient xlink:href="#b" id="f" gradientUnits="userSpaceOnUse" gradientTransform="matrix(.773 .279 -.215 .529 53.254 58.121)" cx="65.121" cy="105.035" fx="65.121" fy="105.035" r="64.499"/><radialGradient xlink:href="#a" id="e" gradientUnits="userSpaceOnUse" gradientTransform="matrix(.329 .121 -2.258 6.155 884.279 -2357.911)" cx="280.563" cy="429.615" fx="280.563" fy="429.615" r="50.012"/></defs><g><path d="M126.295 270.574c75.58-.332 48.33-21.136 48.33-21.136l29.716-22.905s16.92 1.3 26.533-4.997l10.237-7.76c13.922-11.27-71.98-30.993-101.15-20.054l-12.383 8.667c-8.95 5.634 2.477 13 2.477 13l-27.24 21.048c-64.97 6.298-19.81 26.62-19.81 26.62l-78.002 73.05s-.507 8.885 15.736-.065l105.557-65.47z" fill-opacity=".706" fill-rule="evenodd" stroke="#000"/><path d="M49.948 149.418L4.203 326.098c-1.99 22.873 11.27 3.316 11.27 3.316l80.55-168.394-46.075-11.602z" fill="url(#e)" fill-rule="evenodd" stroke="#000" stroke-width="8"/><path d="M130.862 159.8a57.07 32.88 17.798 1 1-107.796-37.338A57.07 32.88 17.798 1 1 130.862 159.8z" fill="url(#f)" stroke="#000" stroke-width="8" stroke-linecap="round"/><path d="M67.185 52.956L41.33 125.55c1.325 28.177 57.015 41.768 73.92 27.183l27.182-74.915-75.247-24.862z" fill="#f50000" fill-rule="evenodd" stroke="#000" stroke-width="8"/><path d="M366.35 188.62l-28.91 79.915c1.11 23.555 47.665 34.917 61.798 22.724l28.028-77.215-60.917-25.425z" transform="matrix(1.077 0 0 1.028 -318.257 -148.698)" fill="#fff" fill-opacity=".152" fill-rule="evenodd" stroke="#000" stroke-width="6.688" stroke-opacity=".493" filter="url(#g)"/><path d="M62.305 12.21l-8.38 22.183c3.647 26.85 81.877 56.352 107.733 40.773l9.613-23.204" fill="url(#h)" fill-rule="evenodd" stroke="#000" stroke-width="8"/><path d="M169.496 55.327a57.928 22.86 19.845 1 1-106.17-44.41 57.928 22.86 19.845 1 1 106.17 44.41z" fill="#c2e8f4" stroke="#000" stroke-width="7.973" stroke-linecap="round"/><path d="M124.97 122.724a60.164 36.63 0 1 1-120.33 0 60.164 36.63 0 1 1 120.33 0z" transform="matrix(.823 .372 -.405 .429 112.649 -44.672)" fill="url(#i)" stroke="url(#j)" stroke-width="10.443" stroke-linecap="round" stroke-opacity=".54" filter="url(#k)"/></g></svg>